<svg width="190" height="54" viewBox="0 0 190 54" fill="none" xmlns="http://www.w3.org/2000/svg">
<path fill-rule="evenodd" clip-rule="evenodd" d="M0.425984 6.2806C0.152917 6.5209 0 6.8595 0 7.21995V16.3622C0 16.7227 0.152917 17.0613 0.425984 17.2907L7.21989 23.2435C7.44926 23.4401 7.74417 23.5493 8.03909 23.5493H19.1038C19.5625 23.5493 19.9776 23.2981 20.2069 22.894L21.9327 19.7264H6.53176C5.54872 19.7264 4.72952 19.1366 4.54383 18.3392V13.5223V5.2211C4.72952 4.43467 5.54872 3.83392 6.53176 3.83392H21.9327L20.196 0.666347C19.9776 0.262208 19.5516 0.0109863 19.0928 0.0109863H8.02816C7.72233 0.0109863 7.42742 0.120213 7.20896 0.316821L0.425984 6.2806Z" fill="#161616"/>
<path fill-rule="evenodd" clip-rule="evenodd" d="M82.3569 36.4162C82.0839 36.6565 81.931 36.9951 81.931 37.3446L81.9091 40.1627V40.2501L81.8982 41.9212V43.4613V43.6689L81.931 46.4978C81.931 46.8583 82.0839 47.1969 82.3569 47.4263L89.1509 53.3791C89.3802 53.5757 89.6751 53.685 89.9701 53.685H101.035C101.493 53.685 101.909 53.4337 102.138 53.0296L103.864 49.862H88.4627C87.4797 49.862 86.6605 49.2722 86.4748 48.4748V43.6579V35.3349C86.6605 34.5484 87.4797 33.9477 88.4627 33.9477H103.864L102.138 30.7801C101.919 30.376 101.493 30.1248 101.035 30.1248H89.981C89.6751 30.1248 89.3802 30.234 89.1618 30.4306L82.3569 36.4162Z" fill="#161616"/>
<path fill-rule="evenodd" clip-rule="evenodd" d="M188.296 0.0109863H185.948V18.3283C185.784 19.1147 185.052 19.7155 184.178 19.7155H171.486C170.612 19.7155 169.88 19.1257 169.717 18.3283V0.0109863H167.401C166.451 0.0109863 165.686 0.775573 165.686 1.72585V16.3732C165.686 16.7118 165.817 17.0285 166.057 17.2688L172.032 23.1671C172.272 23.3964 172.578 23.5275 172.917 23.5275H175.309H182.736C183.064 23.5275 183.381 23.3964 183.621 23.1671L189.596 17.2579C189.836 17.0285 189.967 16.7008 189.967 16.3732L190 1.72585C190.011 0.775573 189.246 0.0109863 188.296 0.0109863Z" fill="#161616"/>
<path fill-rule="evenodd" clip-rule="evenodd" d="M49.4907 10.0378L49.4798 7.16516C49.4798 6.83748 49.3487 6.52072 49.1084 6.28042L43.1337 0.382177C42.9043 0.152801 42.5876 0.0217285 42.2599 0.0217285C42.2599 0.0217285 34.7778 0.0217285 34.756 0.0217285H32.1673C31.8396 0.0217285 31.5229 0.152801 31.2935 0.382177L25.3188 6.28042C25.0785 6.5098 24.9474 6.82655 24.9474 7.16516L24.9147 10.0378V13.5331L24.9474 16.4057C24.9474 16.7334 25.0785 17.0502 25.3188 17.2905L31.2935 23.1887C31.5229 23.4181 31.8396 23.5492 32.1673 23.5492H42.2708C42.5985 23.5492 42.9152 23.4181 43.1446 23.1887L49.1193 17.2905C49.3596 17.0611 49.4907 16.7443 49.4907 16.4057L49.5016 13.5331V10.0378H49.4907ZM45.4384 18.35C45.2745 19.1364 44.5427 19.7372 43.6798 19.7372H42.2053H32.1892H30.7146C29.8408 19.7372 29.1199 19.1473 28.9561 18.35V13.5222V10.0269V5.21C29.1199 4.42357 29.8517 3.82282 30.7146 3.82282H42.2053H43.6798C44.5536 3.82282 45.2855 4.41264 45.4384 5.21V10.0378V13.5331V18.35Z" fill="#161616"/>
<path fill-rule="evenodd" clip-rule="evenodd" d="M133.136 40.1736L133.126 37.3009C133.126 36.9732 132.994 36.6565 132.754 36.4162L126.779 30.5179C126.55 30.2885 126.233 30.1575 125.906 30.1575C125.906 30.1575 118.424 30.1575 118.402 30.1575H115.813C115.485 30.1575 115.169 30.2885 114.939 30.5179L108.965 36.4162C108.724 36.6455 108.593 36.9623 108.593 37.3009L108.56 40.1736V43.6688L108.571 46.5415C108.571 46.8692 108.702 47.1859 108.943 47.4262L114.917 53.3245C115.147 53.5538 115.464 53.6849 115.791 53.6849H125.895C126.222 53.6849 126.539 53.5538 126.769 53.3245L132.743 47.4262C132.984 47.1968 133.115 46.8801 133.115 46.5415L133.126 43.6688V40.1736H133.136ZM129.095 48.4966C128.931 49.2831 128.199 49.8838 127.337 49.8838H125.862H115.846H114.36C113.487 49.8838 112.766 49.294 112.602 48.4966V43.6688V40.1736V35.3457C112.766 34.5593 113.497 33.9586 114.36 33.9586H125.851H127.326C128.199 33.9586 128.931 34.5484 129.084 35.3457V40.1736V43.6688V48.4966H129.095Z" fill="#161616"/>
<path fill-rule="evenodd" clip-rule="evenodd" d="M133.202 1.26691C133.202 0.578785 132.645 0.0217285 131.957 0.0217285H111.04C110.548 0.0217285 110.111 0.305718 109.904 0.742625L108.473 3.83374H118.107C118.937 3.83374 119.636 4.42357 119.789 5.21L119.767 23.5055H123.754L123.568 3.95389H133.213V1.26691H133.202Z" fill="#161616"/>
<path d="M170.405 35.3459C170.59 34.5594 171.442 33.9587 172.458 33.9587H189.978V31.3918C189.978 30.7037 189.421 30.1357 188.733 30.1357H173.998C173.703 30.1357 173.419 30.245 173.19 30.4307L166.112 36.3944C165.828 36.6347 165.675 36.9733 165.664 37.3447V40.1628V43.658V46.4433C165.664 46.8037 165.828 47.1533 166.112 47.3936L173.19 53.3792C173.419 53.5758 173.703 53.6741 173.998 53.6741H188.733C189.421 53.6741 189.978 53.117 189.978 52.418V49.8512H172.458C171.442 49.8512 170.59 49.2613 170.405 48.464V44.2588H183.49C183.971 44.2588 184.407 43.9857 184.615 43.5597L186.253 40.2174H170.405V40.1409V35.3459Z" fill="#161616"/>
<path fill-rule="evenodd" clip-rule="evenodd" d="M81.9091 7.04512C81.9091 6.71744 81.8982 6.61914 82.1276 6.37884L87.9166 0.393216C88.1569 0.141995 88.4846 0 88.8341 0H103.896C104.388 0 104.847 0.283989 105.054 0.742742L106.234 3.88847H87.3923C86.5403 3.88847 85.8413 4.48922 85.6775 5.2975V7.50388C85.6775 7.86432 86.1144 8.20293 86.5076 8.31215L105.393 12.4628L105.568 12.5392C106.015 12.714 106.376 13.1509 106.376 13.7189V16.3403C106.376 16.668 106.245 16.9848 106.015 17.2251L100.226 23.1233C99.9862 23.3745 99.6585 23.5165 99.309 23.5165H83.1325C82.8485 23.5165 82.5863 23.4291 82.3679 23.2653C82.1167 23.0796 81.9747 22.7738 81.9638 22.457L81.9091 19.7263H100.751C101.603 19.7263 102.302 19.1256 102.466 18.3173V16.5369C102.466 15.8597 101.996 15.2699 101.33 15.117L83.7332 11.1193C82.6519 10.8244 81.9419 10.4967 81.9091 9.37165C81.9091 9.37165 81.9091 7.80971 81.9091 7.67864V7.04512Z" fill="#161616"/>
<path d="M156.631 16.2967C159.263 16.3185 161.35 14.1777 161.35 11.5563C161.35 10.2018 161.35 7.2418 161.35 7.2418C161.361 6.8595 161.197 6.47721 160.902 6.23691L153.791 0.305899C153.562 0.120213 153.278 0.0109863 152.994 0.0109863H138.226C137.735 0.0109863 137.385 0.131136 137.189 0.578965V23.5275H141.307V16.3404H150.438L155.572 22.9049C156.019 23.5821 156.828 23.5275 157.636 23.5275H161.361L155.353 16.2858L156.631 16.2967ZM141.307 12.4082V3.823H154.545C155.288 3.823 155.943 4.12883 156.325 4.58759C156.533 4.83881 156.642 5.15557 156.642 5.48325V11.2286C156.609 11.5126 156.434 11.7638 156.194 11.9604C155.845 12.2553 155.397 12.3973 154.938 12.3973L141.307 12.4082Z" fill="#161616"/>
<path d="M76.131 0.0109863H73.8154V18.4375C73.8154 19.1366 73.2474 19.6936 72.5593 19.6936H72.0678C71.6418 19.6936 71.183 19.3113 70.8444 18.6232L62.4668 0.491584C62.3248 0.196672 62.0299 0.0109863 61.7022 0.0109863H58.0868C57.6608 0.0109863 57.2566 0.185749 56.9617 0.491584L53.6303 4.12883C53.4774 4.28175 53.39 4.48928 53.39 4.70774V21.8236C53.39 22.7629 54.1546 23.5275 55.094 23.5275H57.4096V5.10095C57.4096 4.4019 57.9775 3.84484 58.6657 3.84484H59.1572C59.5832 3.84484 60.0419 4.22714 60.3805 4.91527L68.7582 23.036C68.9002 23.3309 69.1951 23.5166 69.5228 23.5166H73.1382C73.5642 23.5166 73.9683 23.3418 74.2632 23.036L77.5837 19.6063C77.7367 19.4533 77.824 19.2458 77.824 19.0274V1.71492C77.8459 0.775573 77.0813 0.0109863 76.131 0.0109863Z" fill="#161616"/>
<path d="M161.35 37.5412V37.006C161.35 36.6346 161.175 36.2851 160.891 36.0448L160.356 35.5751C160.356 35.5751 153.267 30.1575 152.983 30.1575H138.336C137.648 30.1575 137.09 30.7145 137.09 31.4027V52.4506C137.09 53.1388 137.648 53.6958 138.336 53.6958H152.994C153.278 53.6958 153.562 53.5975 153.78 53.4118L160.88 47.2405C161.164 47.0002 161.339 46.6507 161.339 46.2793L161.35 39.5182V37.5849V37.5412ZM156.675 48.4966C156.478 49.2831 155.604 49.8838 154.545 49.8838H141.23V33.9586H154.632C155.681 33.9586 156.478 34.4064 156.675 35.1928V48.4966Z" fill="#161616"/>
</svg>
