<svg width="84" height="41" viewBox="0 0 84 41" fill="none" xmlns="http://www.w3.org/2000/svg">
<path fill-rule="evenodd" clip-rule="evenodd" d="M83.9522 12.2298C83.9485 11.6214 83.6844 11.0437 83.2267 10.6427L71.6785 0.527071C71.2906 0.187306 70.7925 2.22052e-06 70.2769 2.17204e-06L50.5433 0C49.7653 0 49.0493 0.424719 48.6764 1.1075L45.7385 6.48635L72.8435 6.48635C74.5169 6.48635 75.9117 7.49676 76.224 8.83662L76.224 22.9869L76.2241 31.1675C75.9117 32.5074 74.5169 33.5178 72.8435 33.5178H45.7385L48.6764 38.8966C49.0494 39.5794 49.7653 40.0041 50.5433 40.0041H70.2769C70.7926 40.0041 71.2906 39.8168 71.6785 39.4771L83.2267 29.3614C83.6844 28.9605 83.9485 28.3828 83.9523 27.7743L83.9995 22.9738L84 22.6151V20.0031L83.9817 17.1585V17.0172L83.9522 12.2298ZM0.0477566 12.2301C0.0514945 11.6216 0.315593 11.0439 0.773274 10.643L12.3215 0.527355C12.7094 0.18759 13.2075 0.000286579 13.7231 0.00028653L33.4567 0.000284358C34.2347 0.000284358 34.9507 0.425003 35.3236 1.10778L38.2615 6.48663L11.1565 6.48664C9.48308 6.48664 8.08828 7.49704 7.77597 8.83691L7.77597 22.9872L7.77596 31.1678C8.08827 32.5076 9.48307 33.5181 11.1565 33.5181H38.2615L35.3236 38.8969C34.9507 39.5797 34.2347 40.0044 33.4567 40.0044H13.7231C13.2074 40.0044 12.7094 39.8171 12.3215 39.4773L0.773263 29.3617C0.315581 28.9607 0.0514827 28.383 0.0477446 27.7746L0.000495672 22.9741L0 22.6154V20.0034L0.0183444 17.1588V17.0175L0.0477566 12.2301Z" fill="white"/>
</svg>